<?xml version="1.0" encoding="UTF-8" standalone="no"?>
<!-- Created with Inkscape (http://www.inkscape.org/) -->

<svg
   xmlns:dc="http://purl.org/dc/elements/1.1/"
   xmlns:cc="http://creativecommons.org/ns#"
   xmlns:rdf="http://www.w3.org/1999/02/22-rdf-syntax-ns#"
   xmlns:svg="http://www.w3.org/2000/svg"
   xmlns="http://www.w3.org/2000/svg"
   xmlns:xlink="http://www.w3.org/1999/xlink"
   xmlns:sodipodi="http://sodipodi.sourceforge.net/DTD/sodipodi-0.dtd"
   xmlns:inkscape="http://www.inkscape.org/namespaces/inkscape"
   width="744.09448819"
   height="1052.3622047"
   id="svg2"
   version="1.1"
   inkscape:version="0.48.2 r9819"
   sodipodi:docname="Search.svg"
   inkscape:export-filename="/Users/Oscar/Desktop/Search.png"
   inkscape:export-xdpi="14.656488"
   inkscape:export-ydpi="14.656488">
  <defs
     id="defs4">
    <linearGradient
       inkscape:collect="always"
       id="linearGradient3799">
      <stop
         style="stop-color:#ffffff;stop-opacity:1;"
         offset="0"
         id="stop3801" />
      <stop
         style="stop-color:#ffffff;stop-opacity:0;"
         offset="1"
         id="stop3803" />
    </linearGradient>
    <linearGradient
       inkscape:collect="always"
       id="linearGradient3773">
      <stop
         style="stop-color:#ffffff;stop-opacity:1;"
         offset="0"
         id="stop3775" />
      <stop
         style="stop-color:#ffffff;stop-opacity:0;"
         offset="1"
         id="stop3777" />
    </linearGradient>
    <linearGradient
       inkscape:collect="always"
       xlink:href="#linearGradient3773"
       id="linearGradient3779"
       x1="265.68539"
       y1="479.75192"
       x2="266.53433"
       y2="604.3905"
       gradientUnits="userSpaceOnUse" />
    <linearGradient
       inkscape:collect="always"
       xlink:href="#linearGradient3799"
       id="linearGradient3807"
       x1="352.35715"
       y1="325.57645"
       x2="345.50003"
       y2="631.29077"
       gradientUnits="userSpaceOnUse"
       gradientTransform="matrix(2.1049904,0,0,2.0051724,-420.24933,-639.98337)" />
    <linearGradient
       inkscape:collect="always"
       xlink:href="#linearGradient3773"
       id="linearGradient3847"
       gradientUnits="userSpaceOnUse"
       x1="265.68539"
       y1="479.75192"
       x2="266.53433"
       y2="604.3905" />
    <linearGradient
       inkscape:collect="always"
       xlink:href="#linearGradient3773"
       id="linearGradient3849"
       gradientUnits="userSpaceOnUse"
       x1="265.68539"
       y1="479.75192"
       x2="266.53433"
       y2="604.3905" />
  </defs>
  <sodipodi:namedview
     id="base"
     pagecolor="#ffffff"
     bordercolor="#666666"
     borderopacity="1.0"
     inkscape:pageopacity="0.0"
     inkscape:pageshadow="2"
     inkscape:zoom="1"
     inkscape:cx="372.6113"
     inkscape:cy="545.52964"
     inkscape:document-units="px"
     inkscape:current-layer="layer1"
     showgrid="false"
     inkscape:window-width="1283"
     inkscape:window-height="718"
     inkscape:window-x="0"
     inkscape:window-y="0"
     inkscape:window-maximized="0" />
  <metadata
     id="metadata7">
    <rdf:RDF>
      <cc:Work
         rdf:about="">
        <dc:format>image/svg+xml</dc:format>
        <dc:type
           rdf:resource="http://purl.org/dc/dcmitype/StillImage" />
        <dc:title></dc:title>
      </cc:Work>
    </rdf:RDF>
  </metadata>
  <g
     inkscape:label="Layer 1"
     inkscape:groupmode="layer"
     id="layer1">
    <rect
       style="fill:#4cbae6;fill-opacity:1;fill-rule:evenodd;stroke:#47bae6;stroke-width:2.00517249px;stroke-linecap:butt;stroke-linejoin:miter;stroke-opacity:0"
       id="rect2985"
       width="713.26843"
       height="302.20813"
       x="17.680542"
       y="390.82852"
       ry="22.916256" />
    <rect
       ry="22.916256"
       y="388.02289"
       x="18.303558"
       height="214.20813"
       width="713.17761"
       id="rect3789"
       style="fill:url(#linearGradient3807);fill-opacity:1;fill-rule:evenodd;stroke:#47bae6;stroke-width:2.05447531px;stroke-linecap:butt;stroke-linejoin:miter;stroke-opacity:0" />
    <g
       transform="matrix(5.8605911,0,0,5.8605911,-1196.4113,-2450.0827)"
       style="font-size:40px;font-style:normal;font-variant:normal;font-weight:normal;font-stretch:normal;line-height:125%;letter-spacing:0px;word-spacing:0px;fill:#ffffff;fill-opacity:1;stroke:none;font-family:Bello-Script;-inkscape-font-specification:Bello-Script"
       id="flowRoot3755">
      <path
         d="m 216.31875,518.66497 c 0,1.09334 0.18667,2.13334 0.56,3.12 0.4,0.96 0.98666,1.8 1.76,2.52 0.77333,0.74667 1.73333,1.33333 2.88,1.76 1.17333,0.42666 2.53332,0.64 4.08,0.64 1.67999,0 3.18665,-0.30667 4.52,-0.92 1.35998,-0.61333 2.50665,-1.4 3.44,-2.36 0.93331,-0.96 1.65331,-2.02666 2.16,-3.2 0.50665,-1.17333 0.75998,-2.31999 0.76,-3.44 -2e-5,-0.58666 -0.0533,-1.14666 -0.16,-1.68 -0.08,-0.55999 -0.26669,-1.15999 -0.56,-1.8 -0.26669,-0.66665 -0.66669,-1.41332 -1.2,-2.24 -0.50669,-0.85332 -1.17335,-1.87998 -2,-3.08 -0.58668,-0.79998 -1.08002,-1.50665 -1.48,-2.12 -0.37335,-0.61331 -0.68001,-1.15998 -0.92,-1.64 -0.21335,-0.47998 -0.37335,-0.90665 -0.48,-1.28 -0.08,-0.37331 -0.12001,-0.71998 -0.12,-1.04 -1e-5,-0.58664 0.14665,-1.05331 0.44,-1.4 0.31999,-0.34664 0.70665,-0.51998 1.16,-0.52 0.74665,2e-5 1.50665,0.21336 2.28,0.64 0.79998,0.40002 1.73331,1.04002 2.8,1.92 0.45331,-0.21331 0.85331,-0.61331 1.2,-1.2 0.34664,-0.61331 0.51998,-1.30664 0.52,-2.08 -2e-5,-0.58664 -0.12002,-1.17331 -0.36,-1.76 -0.21336,-0.58664 -0.56002,-1.10664 -1.04,-1.56 -0.48002,-0.47997 -1.10669,-0.8533 -1.88,-1.12 -0.77335,-0.2933 -1.69335,-0.43997 -2.76,-0.44 -1.25335,3e-5 -2.40001,0.28003 -3.44,0.84 -1.04001,0.53336 -1.93334,1.24003 -2.68,2.12 -0.74668,0.85336 -1.33334,1.82669 -1.76,2.92 -0.40001,1.09336 -0.60001,2.20002 -0.6,3.32 -1e-5,1.25335 0.19999,2.46669 0.6,3.64 0.39999,1.17335 1.13332,2.44001 2.2,3.8 0.93332,1.17335 1.66665,2.14668 2.2,2.92 0.53332,0.77334 0.91999,1.41334 1.16,1.92 0.26665,0.50667 0.42665,0.93334 0.48,1.28 0.08,0.34667 0.11999,0.68001 0.12,1 -1e-5,1.01334 -0.26668,1.84 -0.8,2.48 -0.50668,0.64 -1.14668,0.96 -1.92,0.96 -0.66668,0 -1.32001,-0.14666 -1.96,-0.44 -0.61334,-0.32 -1.16001,-0.8 -1.64,-1.44 -0.48001,-0.63999 -0.86667,-1.45333 -1.16,-2.44 -0.26667,-0.98666 -0.40001,-2.15999 -0.4,-3.52 l 0,-0.76 c -0.34667,-0.42665 -0.89334,-0.63999 -1.64,-0.64 -0.69334,10e-6 -1.32,0.20001 -1.88,0.6 -0.53334,0.37334 -0.98667,0.86668 -1.36,1.48 -0.37333,0.58668 -0.65333,1.26668 -0.84,2.04 -0.18667,0.74667 -0.28,1.48001 -0.28,2.2"
         style="fill:#ffffff"
         id="path3903" />
      <path
         d="m 246.80312,510.58497 c 0,0.61335 -0.17334,1.18668 -0.52,1.72 -0.34667,0.53335 -1.08,0.90668 -2.2,1.12 0.13333,-1.41332 0.41333,-2.45332 0.84,-3.12 0.42666,-0.69332 0.78666,-1.03998 1.08,-1.04 0.53333,2e-5 0.8,0.44001 0.8,1.32 m -2.88,13.44 c 0.85333,0 1.74666,-0.16 2.68,-0.48 0.93333,-0.32 1.83999,-0.74666 2.72,-1.28 0.87999,-0.53333 1.70666,-1.13333 2.48,-1.8 0.79999,-0.66666 1.49332,-1.34666 2.08,-2.04 0.58665,-0.69333 1.05332,-1.35999 1.4,-2 0.34665,-0.66666 0.51999,-1.23999 0.52,-1.72 -1e-5,-0.31999 -0.13335,-0.61332 -0.4,-0.88 -0.26668,-0.26666 -0.64001,-0.41332 -1.12,-0.44 -0.56001,0.88001 -1.20001,1.68001 -1.92,2.4 -0.69334,0.69334 -1.42668,1.29334 -2.2,1.8 -0.74667,0.50667 -1.50667,0.90667 -2.28,1.2 -0.74667,0.26667 -1.45334,0.40001 -2.12,0.4 -0.77334,10e-6 -1.29334,-0.23999 -1.56,-0.72 -0.24,-0.47999 -0.36,-1.17333 -0.36,-2.08 1.36,-0.31999 2.50666,-0.70666 3.44,-1.16 0.95999,-0.47999 1.73333,-1.02666 2.32,-1.64 0.58666,-0.61332 1.01332,-1.27999 1.28,-2 0.26666,-0.74665 0.39999,-1.54665 0.4,-2.4 -1e-5,-1.41332 -0.37334,-2.45332 -1.12,-3.12 -0.72001,-0.66665 -1.77334,-0.99998 -3.16,-1 -0.96,2e-5 -1.96,0.36002 -3,1.08 -1.04,0.69335 -2,1.61335 -2.88,2.76 -0.85333,1.14668 -1.56,2.45335 -2.12,3.92 -0.53333,1.44001 -0.8,2.92001 -0.8,4.44 0,2.16001 0.45334,3.82667 1.36001,5 0.93333,1.17333 2.38666,1.76 4.35999,1.76"
         style="fill:#ffffff"
         id="path3905" />
      <path
         d="m 261.05813,519.02497 c -0.08,0.61334 -0.12001,1.13334 -0.12,1.56 -10e-6,1.28 0.25332,2.14667 0.75999,2.6 0.53333,0.45333 1.23999,0.68 2.12,0.68 0.47999,0 1.03999,-0.16 1.68001,-0.48 0.66665,-0.32 1.34665,-0.74666 2.03999,-1.28 0.71999,-0.53333 1.42665,-1.12 2.12,-1.76 0.69332,-0.66666 1.30665,-1.33333 1.84001,-2 0.55997,-0.69333 0.99997,-1.34666 1.31999,-1.96 0.34665,-0.61332 0.51998,-1.13332 0.52,-1.56 -2e-5,-0.37332 -0.14668,-0.66666 -0.44,-0.88 -0.26668,-0.23999 -0.61335,-0.35999 -1.04,-0.36 -1.28001,1.81334 -2.41335,3.12001 -3.4,3.92 -0.96001,0.80001 -1.64001,1.20001 -2.04,1.2 -0.16001,10e-6 -0.28001,-0.0533 -0.35999,-0.16 -0.08,-0.10666 -0.12002,-0.35999 -0.12,-0.76 -2e-5,-0.53333 0.14665,-1.46666 0.43999,-2.8 0.29332,-1.33332 0.78666,-3.26665 1.48,-5.8 0.15999,-0.55998 0.26666,-1.06665 0.32001,-1.52 0.08,-0.47998 0.11998,-0.85332 0.12,-1.12 -2e-5,-0.34665 -0.0933,-0.70665 -0.28001,-1.08 -0.18668,-0.39998 -0.45334,-0.75998 -0.8,-1.08 -0.34668,-0.31998 -0.78668,-0.57331 -1.32,-0.76 -0.53334,-0.21331 -1.13334,-0.31998 -1.8,-0.32 -0.61334,2e-5 -1.08001,0.17335 -1.4,0.52 l -0.12,2.32 c -0.18667,-0.18665 -0.53334,-0.27998 -1.04,-0.28 -1.01334,2e-5 -2.05334,0.36002 -3.12,1.08 -1.04,0.72002 -2,1.66668 -2.88,2.84 -0.85333,1.14668 -1.56,2.45335 -2.12,3.92 -0.56,1.46668 -0.84,2.94667 -0.84,4.44 0,1.84 0.37334,3.22667 1.12,4.16 0.74667,0.90667 1.69333,1.36 2.84,1.36 0.34667,0 0.72,-0.0667 1.12,-0.2 0.4,-0.16 0.8,-0.41333 1.2,-0.76 0.4,-0.34666 0.78666,-0.81333 1.16,-1.4 0.37333,-0.61333 0.72,-1.37333 1.04001,-2.28 m 0.04,-1.96 c -0.24,0.29334 -0.49334,0.53334 -0.76,0.72 -0.26667,0.18667 -0.54667,0.28001 -0.83999,0.28 -0.29335,10e-6 -0.54668,-0.08 -0.76,-0.24 -0.18668,-0.18666 -0.28001,-0.65333 -0.28001,-1.4 0,-0.77332 0.10666,-1.54666 0.32,-2.32 0.24,-0.77332 0.53333,-1.50665 0.88,-2.2 0.37333,-0.69332 0.78666,-1.30665 1.24,-1.84 0.48,-0.55998 0.97333,-0.99998 1.48,-1.32 l -1.28,8.32"
         style="fill:#ffffff"
         id="path3907" />
      <path
         d="m 280.31625,508.38497 c -0.34668,-0.10665 -0.69334,-0.21332 -1.04,-0.32 -0.34668,-0.13332 -0.62668,-0.26665 -0.84,-0.4 0.26666,-0.45332 0.59999,-0.82665 1,-1.12 0.39999,-0.31998 0.83999,-0.61331 1.32,-0.88 0.08,-0.23998 0.11999,-0.50665 0.12,-0.8 -1e-5,-0.53331 -0.21334,-0.94665 -0.64,-1.24 -0.40001,-0.31998 -0.94668,-0.47998 -1.64,-0.48 -0.56001,2e-5 -1.21334,0.22669 -1.96,0.68 -0.74667,0.42669 -1.45334,0.97335 -2.12,1.64 -0.64,0.66669 -1.2,1.40002 -1.68,2.2 -0.45334,0.80002 -0.68,1.54668 -0.68,2.24 0,0.37335 0.0533,0.69335 0.16,0.96 0.13333,0.26668 0.28,0.49335 0.44,0.68 -0.34667,0.82668 -0.72,1.53334 -1.12,2.12 -0.37334,0.58668 -0.82667,1.25334 -1.36,2 -0.18667,0.26668 -0.28,0.58668 -0.28,0.96 0,0.42667 0.13333,0.80001 0.4,1.12 0.29333,0.29334 0.69333,0.44001 1.2,0.44 0.66666,-0.74666 1.25333,-1.50666 1.76,-2.28 0.53333,-0.77332 1.10666,-1.75999 1.72,-2.96 0.45333,0.18668 0.78666,0.36001 1,0.52 0.21333,0.13334 0.31999,0.32001 0.32,0.56 -1e-5,0.26668 -0.10667,0.66668 -0.32,1.2 -0.18667,0.50668 -0.41334,1.09334 -0.68,1.76 -0.24001,0.64001 -0.46667,1.32001 -0.68,2.04 -0.18667,0.72 -0.28001,1.41334 -0.28,2.08 -10e-6,1.14667 0.31999,2 0.96,2.56 0.66666,0.53333 1.61333,0.8 2.84,0.8 0.61332,0 1.29332,-0.18667 2.04,-0.56 0.77332,-0.34667 1.54665,-0.8 2.32,-1.36 0.77332,-0.58666 1.53332,-1.24 2.28,-1.96 0.74665,-0.72 1.39998,-1.42666 1.96,-2.12 0.58665,-0.71999 1.05331,-1.39999 1.4,-2.04 0.34665,-0.63999 0.51998,-1.17332 0.52,-1.6 -2e-5,-0.29332 -0.16002,-0.57332 -0.48,-0.84 -0.29335,-0.26666 -0.69335,-0.39999 -1.2,-0.4 -0.53335,0.82668 -1.09335,1.60001 -1.68,2.32 -0.58668,0.69334 -1.16002,1.30667 -1.72,1.84 -0.56001,0.50667 -1.08001,0.90667 -1.56,1.2 -0.45335,0.29334 -0.81335,0.44001 -1.08,0.44 -0.26668,1e-5 -0.45334,-0.08 -0.56,-0.24 -0.08,-0.18666 -0.12001,-0.42666 -0.12,-0.72 -10e-6,-0.50666 0.17332,-1.19999 0.52,-2.08 0.34665,-0.87999 0.74665,-1.78666 1.2,-2.72 0.31999,-0.63999 0.57332,-1.19999 0.76,-1.68 0.21332,-0.50665 0.31999,-0.95999 0.32,-1.36 -10e-6,-0.47999 -0.18668,-0.87999 -0.56,-1.2 -0.34668,-0.31998 -1.10668,-0.65332 -2.28,-1"
         style="fill:#ffffff"
         id="path3909" />
      <path
         d="m 291.06875,524.02497 c 0.79999,0 1.62666,-0.16 2.48,-0.48 0.87999,-0.34667 1.73332,-0.78666 2.56,-1.32 0.82665,-0.53333 1.61332,-1.13333 2.36,-1.8 0.74665,-0.66666 1.38665,-1.34666 1.92,-2.04 0.55998,-0.69333 0.99998,-1.35999 1.32,-2 0.34665,-0.63999 0.51998,-1.18666 0.52,-1.64 -2e-5,-0.42666 -0.17335,-0.74666 -0.52,-0.96 -0.32002,-0.23999 -0.66668,-0.35999 -1.04,-0.36 -0.53335,0.85334 -1.12002,1.62668 -1.76,2.32 -0.64001,0.66667 -1.29335,1.25334 -1.96,1.76 -0.66668,0.50667 -1.32001,0.89334 -1.96,1.16 -0.64001,0.26667 -1.24001,0.40001 -1.8,0.4 -0.77334,10e-6 -1.33334,-0.22666 -1.68,-0.68 -0.32001,-0.47999 -0.48001,-1.27999 -0.48,-2.4 -10e-6,-1.01332 0.08,-1.91999 0.24,-2.72 0.15999,-0.82665 0.34666,-1.51999 0.56,-2.08 0.21333,-0.58665 0.43999,-1.02665 0.68,-1.32 0.26666,-0.31998 0.49332,-0.47998 0.68,-0.48 0.13332,2e-5 0.25332,0.0667 0.36,0.2 0.10666,0.13335 0.15999,0.34668 0.16,0.64 -1e-5,0.26668 -0.04,0.62668 -0.12,1.08 -0.0533,0.42668 -0.14668,0.90668 -0.28,1.44 0.15999,0.24001 0.37332,0.42668 0.64,0.56 0.26666,0.13334 0.62666,0.20001 1.08,0.2 0.47999,1e-5 0.94666,-0.11999 1.4,-0.36 0.45332,-0.23999 0.83999,-0.55999 1.16,-0.96 0.34665,-0.42665 0.62665,-0.91999 0.84,-1.48 0.21332,-0.55999 0.31999,-1.15998 0.32,-1.8 -10e-6,-1.22665 -0.34668,-2.17332 -1.04,-2.84 -0.66668,-0.69331 -1.68001,-1.03998 -3.04,-1.04 -1.06668,2e-5 -2.14667,0.34669 -3.24,1.04 -1.09334,0.69335 -2.08,1.61335 -2.96,2.76 -0.88,1.14668 -1.6,2.45335 -2.16,3.92 -0.56,1.46668 -0.84,2.97334 -0.84,4.52 0,2.16001 0.44,3.82667 1.32,5 0.88,1.17333 2.30666,1.76 4.28,1.76"
         style="fill:#ffffff"
         id="path3911" />
      <path
         d="m 300.38437,515.30497 c -0.50666,0.85334 -0.85333,1.65334 -1.03999,2.4 -0.18667,0.72001 -0.28001,1.38667 -0.28001,2 0,0.53334 0.10667,1.05334 0.32,1.56 0.21334,0.48 0.49334,0.92 0.84,1.32 0.37334,0.4 0.8,0.72 1.28,0.96 0.50667,0.24 1.05333,0.36 1.64001,0.36 0.39999,0 0.75999,-0.04 1.07999,-0.12 0.32,-0.08 0.57333,-0.22667 0.76,-0.44 0.0267,-1.86666 0.0933,-3.56 0.2,-5.08 0.13333,-1.54666 0.30666,-3.03999 0.52001,-4.48 1.06665,-0.90665 1.97332,-1.35999 2.71999,-1.36 0.21333,10e-6 0.35999,0.0667 0.44,0.2 0.08,0.13335 0.11999,0.28001 0.12,0.44 -1e-5,0.21334 -0.10667,0.64001 -0.32,1.28 -0.21334,0.61334 -0.45334,1.32001 -0.72,2.12 -0.26667,0.80001 -0.50667,1.62667 -0.72,2.48 -0.21334,0.82667 -0.32,1.57334 -0.31999,2.24 -1e-5,1.12 0.22665,1.94667 0.68,2.48 0.45332,0.50667 1.27998,0.76 2.47999,0.76 0.61333,0 1.29332,-0.18667 2.04,-0.56 0.77332,-0.34667 1.54666,-0.8 2.32,-1.36 0.77332,-0.56 1.51999,-1.18666 2.24,-1.88 0.74665,-0.72 1.39998,-1.42666 1.96,-2.12 0.58665,-0.71999 1.05332,-1.38666 1.40001,-2 0.34664,-0.63999 0.51997,-1.17332 0.51999,-1.6 -2e-5,-0.39999 -0.17335,-0.71999 -0.51999,-0.96 -0.32003,-0.23999 -0.66669,-0.35999 -1.04001,-0.36 -1.30668,1.86668 -2.50668,3.28001 -3.6,4.24 -1.09334,0.96001 -1.82668,1.44001 -2.2,1.44 -0.37334,1e-5 -0.56001,-0.19999 -0.56,-0.6 -10e-6,-0.23999 0.0667,-0.59999 0.2,-1.08 0.15999,-0.50666 0.33332,-1.05333 0.52001,-1.64 0.21331,-0.58666 0.43998,-1.15999 0.68,-1.72 0.23998,-0.58666 0.43998,-1.10666 0.59999,-1.56 0.29332,-0.77332 0.51999,-1.47999 0.68,-2.12 0.18665,-0.63999 0.27999,-1.26665 0.28001,-1.88 -2e-5,-0.69332 -0.20002,-1.25332 -0.60001,-1.68 -0.37334,-0.45332 -0.94668,-0.67998 -1.72,-0.68 -0.77334,2e-5 -1.76001,0.32002 -2.96,0.96 -1.20001,0.64002 -2.52,1.62668 -3.95999,2.96 l 0.95999,-3.76 c 0.77333,-1.27998 1.41333,-2.39998 1.92,-3.36 0.53333,-0.95998 0.94666,-1.79998 1.24001,-2.52 0.31998,-0.71998 0.53332,-1.34664 0.63999,-1.88 0.13333,-0.53331 0.19999,-1.02664 0.2,-1.48 -1e-5,-1.0133 -0.22667,-1.7333 -0.68,-2.16 -0.42667,-0.4533 -1.06667,-0.67997 -1.91999,-0.68 -1.28001,3e-5 -2.36001,0.41336 -3.24,1.24 -0.88001,0.80003 -1.64001,2.05336 -2.28001,3.76 -0.61333,1.68002 -1.13333,3.84002 -1.56,6.48 -0.42666,2.64002 -0.84,5.78668 -1.24,9.44"
         style="fill:#ffffff"
         id="path3913" />
    </g>
  </g>
</svg>
