<?xml version="1.0" encoding="utf-8"?>
<!-- Generator: Adobe Illustrator 17.0.1, SVG Export Plug-In . SVG Version: 6.00 Build 0)  -->
<!DOCTYPE svg PUBLIC "-//W3C//DTD SVG 1.1//EN" "http://www.w3.org/Graphics/SVG/1.1/DTD/svg11.dtd">
<svg version="1.1" id="Layer_1" xmlns="http://www.w3.org/2000/svg" xmlns:xlink="http://www.w3.org/1999/xlink" x="0px" y="0px"
	 width="900px" height="300px" viewBox="0 0 900 300" enable-background="new 0 0 900 300" xml:space="preserve">
<polyline fill="#FFFFFF" points="30,120 30,180 48,180 48,120 "/>
<rect x="45" y="171" fill="#FFFFFF" width="37" height="9"/>
<rect x="46" y="120" fill="#FFFFFF" width="36" height="9"/>
<rect x="73" y="127" fill="#FFFFFF" width="17" height="19"/>
<rect x="73" y="154" fill="#FFFFFF" width="17" height="17"/>
<rect x="46" y="145" fill="#FFFFFF" width="36" height="9"/>
<polygon fill="#B3B3B3" points="47.917,154 56,163 56,171 48,171 "/>
<polygon fill="#999999" points="48,154 73,154 73,163 56,163 "/>
<polygon fill="#B3B3B3" points="48,129 56,137 56,145 48,145 "/>
<polygon fill="#999999" points="48,129 73,129 73,137 56,137 "/>
<polygon fill="#999999" points="30,180 39,188.333 90,188.292 82,180 "/>
<polygon fill="#B3B3B3" points="82,171 82,180 90,188.292 90,179.646 "/>
<polygon fill="#999999" points="82,171 90,171 98.5,180 90,180 "/>
<polygon fill="#B3B3B3" points="90,154 98.333,162.5 98.5,180 90,171 "/>
<polygon fill="#B3B3B3" points="82,146 90,154 82,154 "/>
<polygon fill="#999999" points="98.708,154 90,154 82,146 90,146 "/>
<path fill="#999999" d="M90,127"/>
<polygon fill="#B3B3B3" points="98.5,137 90,127 90,146 98.708,154 "/>
<polygon fill="#B3B3B3" points="82,120 88.833,127 82,127 "/>
<rect x="98" y="120" fill="#FFFFFF" width="18" height="60"/>
<rect x="116" y="120" fill="#FFFFFF" width="34" height="9"/>
<rect x="141" y="129" fill="#FFFFFF" width="17" height="25"/>
<rect x="133" y="146" fill="#FFFFFF" width="8" height="17"/>
<rect x="133" y="163" fill="#FFFFFF" width="17" height="9"/>
<rect x="133" y="171" fill="#FFFFFF" width="25" height="9"/>
<rect x="124" y="154" fill="#FFFFFF" width="11" height="17"/>
<rect x="114" y="154" fill="#FFFFFF" width="19" height="9"/>
<polygon fill="#B3B3B3" points="158,129 167,138.333 167,163 158,154 "/>
<polygon fill="#999999" points="141,154 158,154 167,163 150,163 "/>
<polygon fill="#B3B3B3" points="141,163 141,154 150,163 "/>
<polygon fill="#999999" points="133,180 141,188 167,188 158,180 "/>
<polygon fill="#B3B3B3" points="150,163 158,171 150,171 "/>
<polyline fill="#B3B3B3" points="167,180 167,188 158,180 158,171 "/>
<polygon fill="#999999" points="131,178.031 124,171 133,171 133,178 "/>
<polygon fill="#999999" points="124,188 116,180 98,180 107,188 "/>
<polygon fill="#B3B3B3" points="116,163 124,171 124,188 116,180 "/>
<polygon fill="#999999" points="124,163 116,163 124,171 "/>
<polygon fill="#B3B3B3" points="116,129 124,137.188 124,154 116,154 "/>
<polygon fill="#999999" points="116,129 141,129 141,137 124,137.188 "/>
<polygon fill="#B3B3B3" points="150,120 158,129 150,129 "/>
<rect x="175" y="120" fill="#FFFFFF" width="52" height="9"/>
<rect x="192" y="127" fill="#FFFFFF" width="17" height="49"/>
<rect x="175" y="171" fill="#FFFFFF" width="52" height="9"/>
<polygon fill="#999999" points="175,129 184.024,137 192,137 192,129 "/>
<polygon fill="#999999" points="175.031,180 183.938,188 235,188 227,180 "/>
<polygon fill="#B3B3B3" points="227,171 235,179.75 235,188 227,180 "/>
<polygon fill="#B3B3B3" points="209,129 218,137 218,171 209,171 "/>
<polygon fill="#999999" points="227,129 235,137 218,137 209,129 "/>
<polygon fill="#B3B3B3" points="235,128.688 227,120 227,129 235,137 "/>
<rect x="235" y="137" fill="#FFFFFF" width="17" height="26"/>
<rect x="243" y="162" fill="#FFFFFF" width="18" height="9"/>
<rect x="243" y="128" fill="#FFFFFF" width="18" height="9"/>
<rect x="252" y="120" fill="#FFFFFF" width="34" height="9"/>
<rect x="278" y="128" fill="#FFFFFF" width="17" height="9"/>
<rect x="252" y="171" fill="#FFFFFF" width="34" height="9"/>
<rect x="278" y="163" fill="#FFFFFF" width="17" height="8"/>
<polyline fill="#999999" points="278,137 286.5,146 303,146 295,137 "/>
<path fill="#999999" d="M295,128"/>
<polygon fill="#B3B3B3" points="286,120 294.25,128 286,128 "/>
<polygon fill="#B3B3B3" points="303,146 295,137 295,128 303,137.563 "/>
<polygon fill="#999999" points="278,137 269.188,137 261,129 278,129 "/>
<polygon fill="#B3B3B3" points="269.219,145.625 261,137 261,129 269.188,137 "/>
<polygon fill="#999999" points="269.219,145.625 260.609,145.688 252,137 261,137 "/>
<polygon fill="#B3B3B3" points="260.609,145.688 260.641,162 252,162 252,137 "/>
<polygon fill="#999999" points="235,163 243,170.375 243,163 "/>
<polygon fill="#999999" points="243,171 252,179.188 252,171 "/>
<polygon fill="#999999" points="252,180 260.609,188 295,188 286,180 "/>
<polygon fill="#B3B3B3" points="286,171 295,180 295,188 286,180 "/>
<polygon fill="#B3B3B3" points="295,163 303,171.75 303,180 295,171 "/>
<polygon fill="#999999" points="286,171 295,180 303,180 295,171 "/>
<polygon fill="#B3B3B3" points="261,162 269,171 261,171 "/>
<rect x="303" y="120" fill="#FFFFFF" width="18" height="60"/>
<rect x="320" y="146" fill="#FFFFFF" width="18" height="17"/>
<rect x="329" y="137" fill="#FFFFFF" width="17" height="9"/>
<rect x="337" y="129" fill="#FFFFFF" width="18" height="8"/>
<rect x="346" y="120" fill="#FFFFFF" width="17" height="9"/>
<rect x="329" y="154" fill="#FFFFFF" width="17" height="17"/>
<rect x="341" y="163" fill="#FFFFFF" width="13" height="8"/>
<rect x="337" y="171" fill="#FFFFFF" width="26" height="9"/>
<polygon fill="#B3B3B3" points="321,120 329,129.667 329,146 321,146 "/>
<polygon fill="#B3B3B3" points="321,180 329,188.406 329,163 321,163 "/>
<polygon fill="#999999" points="303,180 312,188.333 329,188.406 321,180 "/>
<polygon fill="#999999" points="321,163 329,171 329,163 "/>
<polygon fill="#999999" points="337,180 346,188 371,188 363,180 "/>
<polygon fill="#999999" points="329,171 337,179.583 337,171 "/>
<polygon fill="#B3B3B3" points="363,171 371,180 371,188 363,180 "/>
<polygon fill="#B3B3B3" points="354,163 362,171 354,171 "/>
<polygon fill="#B3B3B3" points="346,154 354,163 346,163 "/>
<polygon fill="#B3B3B3" points="338,146 346,154 338,154 "/>
<polygon fill="#999999" points="346,146 354.375,154 346,154 338,146 "/>
<polyline fill="#B3B3B3" points="354.375,145.656 346,137 346,146 354.375,154 "/>
<polygon fill="#999999" points="363.031,146 354.375,146 346,137 355,137 "/>
<polygon fill="#B3B3B3" points="355,129 363,137.141 363.031,146 355,137 "/>
<polygon fill="#999999" points="363,129 371.53,137.097 363,137.141 355,129 "/>
<polygon fill="#B3B3B3" points="363,120 371.53,128.75 371.453,137.097 363,129 "/>
<rect x="448" y="120" fill="#FFFFFF" width="35" height="9"/>
<rect x="474" y="128" fill="#FFFFFF" width="17" height="9"/>
<rect x="440" y="129" fill="#FFFFFF" width="17" height="17"/>
<rect x="448" y="145" fill="#FFFFFF" width="43" height="9"/>
<rect x="482" y="154" fill="#FFFFFF" width="18" height="17"/>
<rect x="440" y="163" fill="#FFFFFF" width="17" height="8"/>
<rect x="448" y="171" fill="#FFFFFF" width="43" height="9"/>
<polygon fill="#999999" points="448,180 456.797,188.328 499.469,188.313 491,180 "/>
<polygon fill="#999999" points="440,171.042 446.917,178 448,178 448,171 "/>
<polygon fill="#B3B3B3" points="457,163 464,169.833 464,171 457,171 "/>
<polygon fill="#999999" points="448,154 457.292,163 482,163 482,154 "/>
<polygon fill="#B3B3B3" points="491,145 499.083,154 491,154 "/>
<polygon fill="#B3B3B3" points="500,154 508,163 508,180 500,171 "/>
<polygon fill="#999999" points="490.984,171.031 499.375,180 508,180 500,171 "/>
<polyline fill="#B3B3B3" points="491,180 499.438,188.328 499.375,179.969 491,171 "/>
<polygon fill="#999999" points="440,146 448,153.125 448,146 "/>
<polygon fill="#B3B3B3" points="457,129 465.281,137.156 465.5,145 457,145 "/>
<polyline fill="#999999" points="474,129 474,137 465.25,137 457,129 "/>
<polyline fill="#999999" points="491,137 499.453,146 491.898,146 491,145 482.281,145 474,137 "/>
<polygon fill="#B3B3B3" points="499.453,146 491,137 491,128 499.354,137.75 "/>
<polygon fill="#B3B3B3" points="483,120 490.208,128 483,128 "/>
<rect x="508" y="120" fill="#FFFFFF" width="17.167" height="59.664"/>
<rect x="522" y="120" fill="#FFFFFF" width="45.583" height="8.583"/>
<rect x="523.667" y="145.417" fill="#FFFFFF" width="35.333" height="8.917"/>
<rect x="520.5" y="171" fill="#FFFFFF" width="47.417" height="8.664"/>
<polygon fill="#B3B3B3" points="525.167,128.583 533.583,137 533.583,145.417 525.167,145.417 "/>
<polygon fill="#999999" points="567.583,128.583 576.083,137 533.583,137 525.167,128.583 "/>
<polygon fill="#B3B3B3" points="567.583,120 576.083,128.583 576.083,137 567.583,128.583 "/>
<polygon fill="#B3B3B3" points="525.167,154.333 533.583,162.75 533.583,171 525.167,171 "/>
<polygon fill="#B3B3B3" points="559,145.417 567.583,154.333 567.583,162.75 559,154.333 "/>
<polygon fill="#999999" points="525.167,154.333 533.583,162.75 567.583,162.75 559,154.333 "/>
<polygon fill="#B3B3B3" points="567.917,171 576.453,180.339 576.547,188.667 567.917,179.664 "/>
<polyline fill="#999999" points="508,179.664 516.583,188.328 576.5,188.667 567.917,179.664 "/>
<rect x="576.083" y="137" fill="#FFFFFF" width="17.042" height="42.664"/>
<rect x="584.604" y="128.583" fill="#FFFFFF" width="17.271" height="9.042"/>
<rect x="593.125" y="120" fill="#FFFFFF" width="25.625" height="9.25"/>
<rect x="610.375" y="128.5" fill="#FFFFFF" width="17" height="8.5"/>
<rect x="618.875" y="137" fill="#FFFFFF" width="16.75" height="42.833"/>
<rect x="592.375" y="153.616" fill="#FFFFFF" width="27.5" height="9.134"/>
<rect x="644.125" y="120" fill="#FFFFFF" width="17.25" height="59.664"/>
<rect x="659.5" y="120" fill="#FFFFFF" width="36" height="8.5"/>
<rect x="687.125" y="127.125" fill="#FFFFFF" width="17.125" height="26.958"/>
<rect x="661.375" y="153.125" fill="#FFFFFF" width="25.75" height="9.542"/>
<rect x="678.375" y="145.417" fill="#FFFFFF" width="10.375" height="8.199"/>
<rect x="669.875" y="161.875" fill="#FFFFFF" width="25.625" height="9.125"/>
<rect x="678.375" y="171" fill="#FFFFFF" width="25.875" height="8.833"/>
<rect x="712.625" y="137" fill="#FFFFFF" width="17.125" height="26.25"/>
<rect x="721.188" y="162.667" fill="#FFFFFF" width="17.188" height="8.333"/>
<rect x="729.75" y="171" fill="#FFFFFF" width="34" height="8.664"/>
<rect x="755.125" y="162.667" fill="#FFFFFF" width="17.125" height="8.333"/>
<rect x="729.781" y="120" fill="#FFFFFF" width="33.906" height="8.5"/>
<rect x="755.125" y="128.5" fill="#FFFFFF" width="17.125" height="8.5"/>
<rect x="721.188" y="128.5" fill="#FFFFFF" width="17.188" height="8.875"/>
<rect x="780.875" y="120" fill="#FFFFFF" width="17.25" height="59.833"/>
<rect x="795.5" y="145.417" fill="#FFFFFF" width="37.625" height="8.667"/>
<rect x="823.25" y="120" fill="#FFFFFF" width="17.125" height="59.833"/>
<polygon fill="#B3B3B3" points="593.125,162.75 601.688,171 601.688,188.313 593.125,179.664 "/>
<polygon fill="#999999" points="576.083,179.664 584.604,188.313 601.688,188.313 593.125,179.664 "/>
<polygon fill="#999999" points="593.125,162.75 618.875,162.75 618.875,171.25 601.688,171.25 "/>
<polygon fill="#999999" points="618.875,179.833 627.25,188.313 644.438,188.313 635.625,179.833 "/>
<polygon fill="#B3B3B3" points="635.625,137 644.125,145.688 644.438,188.313 635.625,179.833 "/>
<polygon fill="#B3B3B3" points="627.375,128.5 634.938,137 627.25,137 "/>
<polygon fill="#B3B3B3" points="618.75,120 626.875,128.5 618.75,128.5 "/>
<polygon fill="#999999" points="601.875,129.25 610.375,137 610.375,129.25 "/>
<polygon fill="#B3B3B3" points="601.875,137.625 610.375,145.75 610.375,137 601.875,129.25 "/>
<polygon fill="#B3B3B3" points="593.24,137.625 601.688,145.75 601.688,153.616 593.125,153.616 "/>
<polygon fill="#999999" points="610.375,137 618.75,145 618.875,137 "/>
<polygon fill="#999999" points="610.375,145.75 601.688,145.75 593.24,137.625 601.875,137.625 "/>
<polygon fill="#B3B3B3" points="661.375,128.5 669.875,137 669.875,153.125 661.375,153.125 "/>
<polygon fill="#999999" points="687.125,128.5 687.125,137 669.875,137 661.375,128.5 "/>
<polygon fill="#999999" points="661.375,179.664 669.875,188.313 653.125,188.313 644.374,179.664 "/>
<polygon fill="#B3B3B3" points="661.375,162.667 669.875,171.25 669.875,188.313 661.375,179.664 "/>
<polygon fill="#999999" points="669.875,162.75 661.375,162.667 669.875,171.25 "/>
<polygon fill="#999999" points="678.375,171 678.375,179.313 669.875,171 "/>
<polygon fill="#B3B3B3" points="695.5,161.875 703.313,171 695.5,171 "/>
<polygon fill="#999999" points="678.375,179.833 687.125,188.313 712.625,188.313 704.25,179.833 "/>
<polygon fill="#B3B3B3" points="704.25,171 712.625,179.833 712.625,188.313 704.25,179.833 "/>
<polygon fill="#B3B3B3" points="704.25,127.125 712.625,137 712.625,162.667 704.25,154.083 "/>
<polygon fill="#999999" points="687.125,154.083 704.25,154.083 712.625,162.667 696.178,162.667 695.5,161.875 694.458,161.875 "/>
<polyline fill="#B3B3B3" points="687.125,161.875 694.458,161.875 687.125,154.083 "/>
<polygon fill="#999999" points="712.625,163.25 721.188,170.708 721.188,163.25 "/>
<polygon fill="#999999" points="721.188,171 729.75,178.958 729.75,171 "/>
<polygon fill="#999999" points="729.75,179.664 739.042,188.313 772.25,188.313 763.75,179.664 "/>
<polygon fill="#B3B3B3" points="695.5,120 702.875,127.125 695.5,127.125 "/>
<polygon fill="#B3B3B3" points="763.75,171 772.25,179.833 772.25,188.313 763.75,179.664 "/>
<polygon fill="#999999" points="772.25,171 780.875,179.833 772.25,179.833 763.75,171 "/>
<polygon fill="#B3B3B3" points="772.25,162.667 780.875,171.333 780.875,179.664 772.25,171 "/>
<polygon fill="#B3B3B3" points="738.375,162.667 745.958,171 738.375,171 "/>
<polygon fill="#B3B3B3" points="729.75,137.375 738.375,145.708 738.375,162.667 729.75,162.667 "/>
<polygon fill="#999999" points="738.375,137.375 746.656,145.708 738.375,145.708 729.75,137.375 "/>
<polygon fill="#B3B3B3" points="738.375,128.5 746.656,137.063 746.656,145.708 738.375,137.375 "/>
<polygon fill="#999999" points="755.125,128.5 755.125,137 746.656,137.063 738.375,128.5 "/>
<polygon fill="#B3B3B3" points="772.25,128.5 780.875,137.375 780.875,145.625 772.25,137 "/>
<polygon fill="#999999" points="755.125,137 763.688,145.708 780.875,145.625 772.25,137 "/>
<polygon fill="#B3B3B3" points="763.688,120 771.75,128.5 763.688,128.5 "/>
<polygon fill="#999999" points="780.875,179.833 789.292,188.313 806.417,188.313 798.125,179.833 "/>
<polygon fill="#B3B3B3" points="798.125,154.083 806.417,162.667 806.417,188.313 798.125,179.833 "/>
<polygon fill="#999999" points="823.25,154.083 823.25,162.667 806.417,162.667 798.125,154.083 "/>
<polygon fill="#999999" points="823.25,179.833 831.813,188.313 849.125,188.313 840.375,179.833 "/>
<polygon fill="#B3B3B3" points="840.375,120 848.958,128.917 849.125,188.313 840.375,179.833 "/>
<polygon fill="#B3B3B3" points="798.125,120 806.583,128.5 806.583,145.417 798.125,145.417 "/>
</svg>
