<?xml version="1.0" encoding="utf-8"?>
<!-- Generator: Adobe Illustrator 17.0.1, SVG Export Plug-In . SVG Version: 6.00 Build 0)  -->
<!DOCTYPE svg PUBLIC "-//W3C//DTD SVG 1.1//EN" "http://www.w3.org/Graphics/SVG/1.1/DTD/svg11.dtd">
<svg version="1.1" id="Layer_1" xmlns="http://www.w3.org/2000/svg" xmlns:xlink="http://www.w3.org/1999/xlink" x="0px" y="0px"
	 width="839.5px" height="113.5px" viewBox="0 0 839.5 113.5" enable-background="new 0 0 839.5 113.5" xml:space="preserve">
<polyline fill="#FFFFFF" points="8,23 8,83 26,83 26,23 "/>
<rect x="23" y="74" fill="#FFFFFF" width="37" height="9"/>
<rect x="24" y="23" fill="#FFFFFF" width="36" height="9"/>
<rect x="51" y="30" fill="#FFFFFF" width="17" height="19"/>
<rect x="51" y="57" fill="#FFFFFF" width="17" height="17"/>
<rect x="24" y="48" fill="#FFFFFF" width="36" height="9"/>
<polygon fill="#B3B3B3" points="25.917,57 34,66 34,74 26,74 "/>
<polygon fill="#999999" points="26,57 51,57 51,66 34,66 "/>
<polygon fill="#B3B3B3" points="26,32 34,40 34,48 26,48 "/>
<polygon fill="#999999" points="26,32 51,32 51,40 34,40 "/>
<polygon fill="#999999" points="8,83 17,91.333 68,91.292 60,83 "/>
<polygon fill="#B3B3B3" points="60,74 60,83 68,91.292 68,82.646 "/>
<polygon fill="#999999" points="60,74 68,74 76.5,83 68,83 "/>
<polygon fill="#B3B3B3" points="68,57 76.333,65.5 76.5,83 68,74 "/>
<polygon fill="#B3B3B3" points="60,49 68,57 60,57 "/>
<polygon fill="#999999" points="76.708,57 68,57 60,49 68,49 "/>
<path fill="#999999" d="M68,30"/>
<polygon fill="#B3B3B3" points="76.5,40 68,30 68,49 76.708,57 "/>
<polygon fill="#B3B3B3" points="60,23 66.833,30 60,30 "/>
<rect x="76" y="23" fill="#FFFFFF" width="18" height="60"/>
<rect x="94" y="23" fill="#FFFFFF" width="34" height="9"/>
<rect x="119" y="32" fill="#FFFFFF" width="17" height="25"/>
<rect x="111" y="49" fill="#FFFFFF" width="8" height="17"/>
<rect x="111" y="66" fill="#FFFFFF" width="17" height="9"/>
<rect x="111" y="74" fill="#FFFFFF" width="25" height="9"/>
<rect x="102" y="57" fill="#FFFFFF" width="11" height="17"/>
<rect x="92" y="57" fill="#FFFFFF" width="19" height="9"/>
<polygon fill="#B3B3B3" points="136,32 145,41.333 145,66 136,57 "/>
<polygon fill="#999999" points="119,57 136,57 145,66 128,66 "/>
<polygon fill="#B3B3B3" points="119,66 119,57 128,66 "/>
<polygon fill="#999999" points="111,83 119,91 145,91 136,83 "/>
<polygon fill="#B3B3B3" points="128,66 136,74 128,74 "/>
<polyline fill="#B3B3B3" points="145,83 145,91 136,83 136,74 "/>
<polygon fill="#999999" points="109,81.031 102,74 111,74 111,81 "/>
<polygon fill="#999999" points="102,91 94,83 76,83 85,91 "/>
<polygon fill="#B3B3B3" points="94,66 102,74 102,91 94,83 "/>
<polygon fill="#999999" points="102,66 94,66 102,74 "/>
<polygon fill="#B3B3B3" points="94,32 102,40.188 102,57 94,57 "/>
<polygon fill="#999999" points="94,32 119,32 119,40 102,40.188 "/>
<polygon fill="#B3B3B3" points="128,23 136,32 128,32 "/>
<rect x="153" y="23" fill="#FFFFFF" width="52" height="9"/>
<rect x="170" y="30" fill="#FFFFFF" width="17" height="49"/>
<rect x="153" y="74" fill="#FFFFFF" width="52" height="9"/>
<polygon fill="#999999" points="153,32 162.024,40 170,40 170,32 "/>
<polygon fill="#999999" points="153.031,83 161.938,91 213,91 205,83 "/>
<polygon fill="#B3B3B3" points="205,74 213,82.75 213,91 205,83 "/>
<polygon fill="#B3B3B3" points="187,32 196,40 196,74 187,74 "/>
<polygon fill="#999999" points="205,32 213,40 196,40 187,32 "/>
<polygon fill="#B3B3B3" points="213,31.688 205,23 205,32 213,40 "/>
<rect x="213" y="40" fill="#FFFFFF" width="17" height="26"/>
<rect x="221" y="65" fill="#FFFFFF" width="18" height="9"/>
<rect x="221" y="31" fill="#FFFFFF" width="18" height="9"/>
<rect x="230" y="23" fill="#FFFFFF" width="34" height="9"/>
<rect x="256" y="31" fill="#FFFFFF" width="17" height="9"/>
<rect x="230" y="74" fill="#FFFFFF" width="34" height="9"/>
<rect x="256" y="66" fill="#FFFFFF" width="17" height="8"/>
<polyline fill="#999999" points="256,40 264.5,49 281,49 273,40 "/>
<path fill="#999999" d="M273,31"/>
<polygon fill="#B3B3B3" points="264,23 272.25,31 264,31 "/>
<polygon fill="#B3B3B3" points="281,49 273,40 273,31 281,40.563 "/>
<polygon fill="#999999" points="256,40 247.188,40 239,32 256,32 "/>
<polygon fill="#B3B3B3" points="247.219,48.625 239,40 239,32 247.188,40 "/>
<polygon fill="#999999" points="247.219,48.625 238.609,48.688 230,40 239,40 "/>
<polygon fill="#B3B3B3" points="238.609,48.688 238.641,65 230,65 230,40 "/>
<polygon fill="#999999" points="213,66 221,73.375 221,66 "/>
<polygon fill="#999999" points="221,74 230,82.188 230,74 "/>
<polygon fill="#999999" points="230,83 238.609,91 273,91 264,83 "/>
<polygon fill="#B3B3B3" points="264,74 273,83 273,91 264,83 "/>
<polygon fill="#B3B3B3" points="273,66 281,74.75 281,83 273,74 "/>
<polygon fill="#999999" points="264,74 273,83 281,83 273,74 "/>
<polygon fill="#B3B3B3" points="239,65 247,74 239,74 "/>
<rect x="281" y="23" fill="#FFFFFF" width="18" height="60"/>
<rect x="298" y="49" fill="#FFFFFF" width="18" height="17"/>
<rect x="307" y="40" fill="#FFFFFF" width="17" height="9"/>
<rect x="315" y="32" fill="#FFFFFF" width="18" height="8"/>
<rect x="324" y="23" fill="#FFFFFF" width="17" height="9"/>
<rect x="307" y="57" fill="#FFFFFF" width="17" height="17"/>
<rect x="319" y="66" fill="#FFFFFF" width="13" height="8"/>
<rect x="315" y="74" fill="#FFFFFF" width="26" height="9"/>
<polygon fill="#B3B3B3" points="299,23 307,32.667 307,49 299,49 "/>
<polygon fill="#B3B3B3" points="299,83 307,91.406 307,66 299,66 "/>
<polygon fill="#999999" points="281,83 290,91.333 307,91.406 299,83 "/>
<polygon fill="#999999" points="299,66 307,74 307,66 "/>
<polygon fill="#999999" points="315,83 324,91 349,91 341,83 "/>
<polygon fill="#999999" points="307,74 315,82.583 315,74 "/>
<polygon fill="#B3B3B3" points="341,74 349,83 349,91 341,83 "/>
<polygon fill="#B3B3B3" points="332,66 340,74 332,74 "/>
<polygon fill="#B3B3B3" points="324,57 332,66 324,66 "/>
<polygon fill="#B3B3B3" points="316,49 324,57 316,57 "/>
<polygon fill="#999999" points="324,49 332.375,57 324,57 316,49 "/>
<polyline fill="#B3B3B3" points="332.375,48.656 324,40 324,49 332.375,57 "/>
<polygon fill="#999999" points="341.031,49 332.375,49 324,40 333,40 "/>
<polygon fill="#B3B3B3" points="333,32 341,40.141 341.031,49 333,40 "/>
<polygon fill="#999999" points="341,32 349.53,40.097 341,40.141 333,32 "/>
<polygon fill="#B3B3B3" points="341,23 349.53,31.75 349.453,40.097 341,32 "/>
<rect x="426" y="23" fill="#FFFFFF" width="35" height="9"/>
<rect x="452" y="31" fill="#FFFFFF" width="17" height="9"/>
<rect x="418" y="32" fill="#FFFFFF" width="17" height="17"/>
<rect x="426" y="48" fill="#FFFFFF" width="43" height="9"/>
<rect x="460" y="57" fill="#FFFFFF" width="18" height="17"/>
<rect x="418" y="66" fill="#FFFFFF" width="17" height="8"/>
<rect x="426" y="74" fill="#FFFFFF" width="43" height="9"/>
<polygon fill="#999999" points="426,83 434.797,91.328 477.469,91.313 469,83 "/>
<polygon fill="#999999" points="418,74.042 424.917,81 426,81 426,74 "/>
<polygon fill="#B3B3B3" points="435,66 442,72.833 442,74 435,74 "/>
<polygon fill="#999999" points="426,57 435.292,66 460,66 460,57 "/>
<polygon fill="#B3B3B3" points="469,48 477.083,57 469,57 "/>
<polygon fill="#B3B3B3" points="478,57 486,66 486,83 478,74 "/>
<polygon fill="#999999" points="468.984,74.031 477.375,83 486,83 478,74 "/>
<polyline fill="#B3B3B3" points="469,83 477.438,91.328 477.375,82.969 469,74 "/>
<polygon fill="#999999" points="418,49 426,56.125 426,49 "/>
<polygon fill="#B3B3B3" points="435,32 443.281,40.156 443.5,48 435,48 "/>
<polyline fill="#999999" points="452,32 452,40 443.25,40 435,32 "/>
<polyline fill="#999999" points="469,40 477.453,49 469.898,49 469,48 460.281,48 452,40 "/>
<polygon fill="#B3B3B3" points="477.453,49 469,40 469,31 477.354,40.75 "/>
<polygon fill="#B3B3B3" points="461,23 468.208,31 461,31 "/>
<rect x="486" y="23" fill="#FFFFFF" width="17.167" height="59.664"/>
<rect x="500" y="23" fill="#FFFFFF" width="45.583" height="8.583"/>
<rect x="501.667" y="48.417" fill="#FFFFFF" width="35.333" height="8.917"/>
<rect x="498.5" y="74" fill="#FFFFFF" width="47.417" height="8.664"/>
<polygon fill="#B3B3B3" points="503.167,31.583 511.583,40 511.583,48.417 503.167,48.417 "/>
<polygon fill="#999999" points="545.583,31.583 554.083,40 511.583,40 503.167,31.583 "/>
<polygon fill="#B3B3B3" points="545.583,23 554.083,31.583 554.083,40 545.583,31.583 "/>
<polygon fill="#B3B3B3" points="503.167,57.333 511.583,65.75 511.583,74 503.167,74 "/>
<polygon fill="#B3B3B3" points="537,48.417 545.583,57.333 545.583,65.75 537,57.333 "/>
<polygon fill="#999999" points="503.167,57.333 511.583,65.75 545.583,65.75 537,57.333 "/>
<polygon fill="#B3B3B3" points="545.917,74 554.453,83.339 554.547,91.667 545.917,82.664 "/>
<polyline fill="#999999" points="486,82.664 494.583,91.328 554.5,91.667 545.917,82.664 "/>
<rect x="554.083" y="40" fill="#FFFFFF" width="17.042" height="42.664"/>
<rect x="562.604" y="31.583" fill="#FFFFFF" width="17.271" height="9.042"/>
<rect x="571.125" y="23" fill="#FFFFFF" width="25.625" height="9.25"/>
<rect x="588.375" y="31.5" fill="#FFFFFF" width="17" height="8.5"/>
<rect x="596.875" y="40" fill="#FFFFFF" width="16.75" height="42.833"/>
<rect x="570.375" y="56.616" fill="#FFFFFF" width="27.5" height="9.134"/>
<rect x="622.125" y="23" fill="#FFFFFF" width="17.25" height="59.664"/>
<rect x="637.5" y="23" fill="#FFFFFF" width="36" height="8.5"/>
<rect x="665.125" y="30.125" fill="#FFFFFF" width="17.125" height="26.958"/>
<rect x="639.375" y="56.125" fill="#FFFFFF" width="25.75" height="9.542"/>
<rect x="656.375" y="48.417" fill="#FFFFFF" width="10.375" height="8.199"/>
<rect x="647.875" y="64.875" fill="#FFFFFF" width="25.625" height="9.125"/>
<rect x="656.375" y="74" fill="#FFFFFF" width="25.875" height="8.833"/>
<rect x="690.625" y="40" fill="#FFFFFF" width="17.125" height="26.25"/>
<rect x="699.188" y="65.667" fill="#FFFFFF" width="17.188" height="8.333"/>
<rect x="707.75" y="74" fill="#FFFFFF" width="34" height="8.664"/>
<rect x="733.125" y="65.667" fill="#FFFFFF" width="17.125" height="8.333"/>
<rect x="707.781" y="23" fill="#FFFFFF" width="33.906" height="8.5"/>
<rect x="733.125" y="31.5" fill="#FFFFFF" width="17.125" height="8.5"/>
<rect x="699.188" y="31.5" fill="#FFFFFF" width="17.188" height="8.875"/>
<rect x="758.875" y="23" fill="#FFFFFF" width="17.25" height="59.833"/>
<rect x="773.5" y="48.417" fill="#FFFFFF" width="37.625" height="8.667"/>
<rect x="801.25" y="23" fill="#FFFFFF" width="17.125" height="59.833"/>
<polygon fill="#B3B3B3" points="571.125,65.75 579.688,74 579.688,91.313 571.125,82.664 "/>
<polygon fill="#999999" points="554.083,82.664 562.604,91.313 579.688,91.313 571.125,82.664 "/>
<polygon fill="#999999" points="571.125,65.75 596.875,65.75 596.875,74.25 579.688,74.25 "/>
<polygon fill="#999999" points="596.875,82.833 605.25,91.313 622.438,91.313 613.625,82.833 "/>
<polygon fill="#B3B3B3" points="613.625,40 622.125,48.688 622.438,91.313 613.625,82.833 "/>
<polygon fill="#B3B3B3" points="605.375,31.5 612.938,40 605.25,40 "/>
<polygon fill="#B3B3B3" points="596.75,23 604.875,31.5 596.75,31.5 "/>
<polygon fill="#999999" points="579.875,32.25 588.375,40 588.375,32.25 "/>
<polygon fill="#B3B3B3" points="579.875,40.625 588.375,48.75 588.375,40 579.875,32.25 "/>
<polygon fill="#B3B3B3" points="571.24,40.625 579.688,48.75 579.688,56.616 571.125,56.616 "/>
<polygon fill="#999999" points="588.375,40 596.75,48 596.875,40 "/>
<polygon fill="#999999" points="588.375,48.75 579.688,48.75 571.24,40.625 579.875,40.625 "/>
<polygon fill="#B3B3B3" points="639.375,31.5 647.875,40 647.875,56.125 639.375,56.125 "/>
<polygon fill="#999999" points="665.125,31.5 665.125,40 647.875,40 639.375,31.5 "/>
<polygon fill="#999999" points="639.375,82.664 647.875,91.313 631.125,91.313 622.374,82.664 "/>
<polygon fill="#B3B3B3" points="639.375,65.667 647.875,74.25 647.875,91.313 639.375,82.664 "/>
<polygon fill="#999999" points="647.875,65.75 639.375,65.667 647.875,74.25 "/>
<polygon fill="#999999" points="656.375,74 656.375,82.313 647.875,74 "/>
<polygon fill="#B3B3B3" points="673.5,64.875 681.313,74 673.5,74 "/>
<polygon fill="#999999" points="656.375,82.833 665.125,91.313 690.625,91.313 682.25,82.833 "/>
<polygon fill="#B3B3B3" points="682.25,74 690.625,82.833 690.625,91.313 682.25,82.833 "/>
<polygon fill="#B3B3B3" points="682.25,30.125 690.625,40 690.625,65.667 682.25,57.083 "/>
<polygon fill="#999999" points="665.125,57.083 682.25,57.083 690.625,65.667 674.178,65.667 673.5,64.875 672.458,64.875 "/>
<polyline fill="#B3B3B3" points="665.125,64.875 672.458,64.875 665.125,57.083 "/>
<polygon fill="#999999" points="690.625,66.25 699.188,73.708 699.188,66.25 "/>
<polygon fill="#999999" points="699.188,74 707.75,81.958 707.75,74 "/>
<polygon fill="#999999" points="707.75,82.664 717.042,91.313 750.25,91.313 741.75,82.664 "/>
<polygon fill="#B3B3B3" points="673.5,23 680.875,30.125 673.5,30.125 "/>
<polygon fill="#B3B3B3" points="741.75,74 750.25,82.833 750.25,91.313 741.75,82.664 "/>
<polygon fill="#999999" points="750.25,74 758.875,82.833 750.25,82.833 741.75,74 "/>
<polygon fill="#B3B3B3" points="750.25,65.667 758.875,74.333 758.875,82.664 750.25,74 "/>
<polygon fill="#B3B3B3" points="716.375,65.667 723.958,74 716.375,74 "/>
<polygon fill="#B3B3B3" points="707.75,40.375 716.375,48.708 716.375,65.667 707.75,65.667 "/>
<polygon fill="#999999" points="716.375,40.375 724.656,48.708 716.375,48.708 707.75,40.375 "/>
<polygon fill="#B3B3B3" points="716.375,31.5 724.656,40.063 724.656,48.708 716.375,40.375 "/>
<polygon fill="#999999" points="733.125,31.5 733.125,40 724.656,40.063 716.375,31.5 "/>
<polygon fill="#B3B3B3" points="750.25,31.5 758.875,40.375 758.875,48.625 750.25,40 "/>
<polygon fill="#999999" points="733.125,40 741.688,48.708 758.875,48.625 750.25,40 "/>
<polygon fill="#B3B3B3" points="741.688,23 749.75,31.5 741.688,31.5 "/>
<polygon fill="#999999" points="758.875,82.833 767.292,91.313 784.417,91.313 776.125,82.833 "/>
<polygon fill="#B3B3B3" points="776.125,57.083 784.417,65.667 784.417,91.313 776.125,82.833 "/>
<polygon fill="#999999" points="801.25,57.083 801.25,65.667 784.417,65.667 776.125,57.083 "/>
<polygon fill="#999999" points="801.25,82.833 809.813,91.313 827.125,91.313 818.375,82.833 "/>
<polygon fill="#B3B3B3" points="818.375,23 826.958,31.917 827.125,91.313 818.375,82.833 "/>
<polygon fill="#B3B3B3" points="776.125,23 784.583,31.5 784.583,48.417 776.125,48.417 "/>
</svg>
